#!OML:ASF H:\Terrain\Patient Classification 1\Walking\liu\liu.ASF
:FULLY-SPECIFIED
:DEGREES
148
root 0.0205 15.8496 30.8675 8.30205 0.1524 -6.54994
lowerback -4.08067 2.05307 2.9462
upperback 1.09505 2.45319 3.81169
thorax 3.37666 1.24031 2.45408
lowerneck -23.2645 -4.7642 -11.491
upperneck 20.6821 -5.62947 11.6636
head 11.242 -2.04177 5.3008
rclavicle -1.21756e-014 1.98785e-015
rhumerus -22.3191 26.4509 -83.4689
rradius 48.2787
rwrist -20.9615
rhand -32.9124 -21.2882
rfingers 7.12502
rthumb -6.12965 -51.1795
lclavicle -1.21756e-014 1.98785e-015
lhumerus -54.866 -0.834109 86.4458
lradius 22.5323
lwrist -0.926164
lhand -8.85868 -19.4064
lfingers 7.12502
lthumb 17.0825 9.86261
rfemur 13.0853 3.69278 30.2641
rtibia 5.57439
rfoot -5.87349 7.14897
rtoes -10.8827
lfemur -39.5713 0.5543 -12.3545
ltibia 17.1013
lfoot -10.6472 11.3352
ltoes -11.9168
149
root 0.0205 15.8421 31.0681 8.39779 0.1524 -6.78638
lowerback -4.23678 2.1094 3.14437
upperback 1.09357 2.50605 3.8795
thorax 3.46814 1.26997 2.42461
lowerneck -23.1151 -4.85314 -11.7385
upperneck 20.4825 -5.68328 11.7292
head 11.1574 -2.08262 5.35126
rclavicle 4.14466e-014 -6.75868e-015
rhumerus -22.3056 26.3309 -83.3871
rradius 48.2113
rwrist -20.7568
rhand -32.1429 -22.2867
rfingers 7.12502
rthumb -5.38671 -52.1983
lclavicle 4.14466e-014 -6.75868e-015
lhumerus -54.7379 -0.00553996 85.5558
lradius 21.8657
lwrist -2.13639
lhand -9.14517 -19.707
lfingers 7.12502
lthumb 16.8067 9.58567
rfemur 14.248 3.79437 30.323
rtibia 4.64286
rfoot -4.41427 6.77925
rtoes -9.92032
lfemur -39.8688 1.76403 -13.0426
ltibia 18.599
lfoot -9.7337 10.3234
ltoes -13.2948
150
root 0.0206 15.846 31.2688 8.51113 0.1524 -7.01975
lowerback -4.3297 2.16072 3.24064
upperback 0.999247 2.5641 4.00299
thorax 3.42074 1.29906 2.50432
lowerneck -22.9825 -4.94675 -12.1342
upperneck 20.4792 -5.74205 11.9269
head 11.1596 -2.12175 5.48483
rclavicle -5.11871e-015 -1.70955e-014
rhumerus -22.6981 26.479 -83.456
rradius 48.4254
rwrist -21.2017
rhand -32.2239 -23.9589
rfingers 7.12502
rthumb -5.46487 -53.8684
lclavicle -5.11871e-015 -1.70955e-014
lhumerus -54.8523 0.377511 85.2527
lradius 21.4904
lwrist -2.27472
lhand -9.1323 -20.1077
lfingers 7.12502
lthumb 16.8191 9.18386
rfemur 15.3177 3.98308 30.3548
rtibia 3.81024
rfoot -2.93283 6.41418
rtoes -9.18732
lfemur -40.0681 2.63859 -13.4443
ltibia 20.0683
lfoot -7.57641 9.75971
ltoes -11.7842
151
root 0.0206 15.8493 31.4694 8.58509 0.1524 -7.13327
lowerback -4.31861 2.1378 3.25928
upperback 0.924676 2.53365 4.10632
thorax 3.33408 1.28282 2.59585
lowerneck -22.9803 -4.98258 -12.4107
upperneck 20.4036 -5.73492 12.1046
head 11.1458 -2.11962 5.5993
rclavicle -8.94531e-016 5.56597e-015
rhumerus -22.9841 26.6503 -83.5051
rradius 48.548
rwrist -21.6432
rhand -32.9575 -24.4836
rfingers 7.12502
rthumb -6.17317 -54.3736
lclavicle -8.94531e-016 5.56597e-015
lhumerus -54.7945 0.887174 84.887
lradius 21.1161
lwrist -2.45677
lhand -8.78683 -20.8338
lfingers 7.12502
lthumb 17.1516 8.42913
rfemur 15.8828 3.97904 30.3149
rtibia 3.66721
rfoot -1.7703 6.23977
rtoes -10.5934
lfemur -40.3182 2.82932 -13.5711
ltibia 21.3765
lfoot -5.48861 9.82793
ltoes -8.35326
152
root 0.0206 15.8495 31.67 8.55325 0.1524 -6.85959
lowerback -4.25198 2.11827 3.01441
upperback 0.874724 2.53232 3.97723
thorax 3.23936 1.2787 2.59359
lowerneck -22.9808 -4.96315 -12.4473
upperneck 20.2714 -5.75581 12.379
head 11.1118 -2.0989 5.70323
rclavicle 2.66371e-014 2.78299e-014
rhumerus -23.2315 26.3775 -83.7198
rradius 48.4728
rwrist -21.8233
rhand -33.3627 -24.936
rfingers 7.12502
rthumb -6.56433 -54.8142
lclavicle 2.66371e-014 2.78299e-014
lhumerus -54.6822 1.47759 84.0373
lradius 20.8051
lwrist -3.3683
lhand -8.18054 -21.3484
lfingers 7.12502
lthumb 17.7351 7.86281
rfemur 16.192 3.85969 29.8383
rtibia 4.06596
rfoot -0.613091 6.41568
rtoes -12.0339
lfemur -40.7015 2.6396 -13.9094
ltibia 22.8118
lfoot -4.21187 10.0322
ltoes -7.02092
153
root 0.0207 15.8495 31.8707 8.43006 0.1524 -6.48403
lowerback -4.1611 2.10945 2.63148
upperback 0.829255 2.5533 3.84552
thorax 3.12915 1.28353 2.6665
lowerneck -23.0141 -4.93726 -12.3547
upperneck 20.3702 -5.78743 12.4916
head 11.1608 -2.0915 5.72987
rclavicle -3.04638e-014 -1.19271e-015
rhumerus -23.7316 25.7712 -83.8633
rradius 48.3722
rwrist -21.3869
rhand -33.0794 -24.4525
rfingers 7.12502
rthumb -6.29084 -54.339
lclavicle -3.04638e-014 -1.19271e-015
lhumerus -54.7045 1.76299 83.5631
lradius 20.6966
lwrist -3.94661
lhand -8.10351 -21.4191
lfingers 7.12502
lthumb 17.8092 7.78545
rfemur 16.1329 3.76836 29.2229
rtibia 5.55857
rfoot -0.14341 6.82277
rtoes -15.6487
lfemur -40.9431 3.0109 -14.6763
ltibia 24.2659
lfoot -2.93969 9.52234
ltoes -7.01395
154
root 0.0207 15.8439 32.0713 8.39389 0.1524 -6.34168
lowerback -4.155 2.0378 2.41813
upperback 0.769482 2.47171 3.87201
thorax 3.05555 1.23903 2.80545
lowerneck -22.996 -4.81488 -11.9344
upperneck 20.4532 -5.68828 12.1701
head 11.1478 -2.0514 5.55303
rclavicle 6.80837e-015 1.11319e-014
rhumerus -24.2687 25.3161 -83.9232
rradius 48.2277
rwrist -20.8683
rhand -32.8056 -23.587
rfingers 7.12502
rthumb -6.02655 -53.4813
lclavicle 6.80837e-015 1.11319e-014
lhumerus -54.5695 2.24351 83.1584
lradius 20.3539
lwrist -4.54619
lhand -8.39852 -21.6967
lfingers 7.12502
lthumb 17.5254 7.53333
rfemur 15.4634 3.58359 28.9002
rtibia 8.41218
rfoot -0.70586 6.79103
rtoes -16.0926
lfemur -41.0514 3.54783 -15.2768
ltibia 25.5608
lfoot -1.69547 8.67988
ltoes -7.37753
155
root 0.0207 15.8535 32.2719 8.33216 0.1524 -5.78616
lowerback -4.25346 1.97622 1.80839
upperback 0.787628 2.42262 3.7098
thorax 3.11211 1.20545 2.98003
lowerneck -23.0909 -4.97097 -12.4082
upperneck 20.5671 -5.84372 12.5612
head 11.2614 -2.1111 5.76503
rclavicle 3.0265e-014 7.95139e-015
rhumerus -24.4873 24.8038 -84.1091
rradius 47.8541
rwrist -20.5077
rhand -32.756 -24.7005
rfingers 7.12502
rthumb -5.97867 -54.5962
lclavicle 3.0265e-014 7.95139e-015
lhumerus -54.4217 2.21446 83.0714
lradius 20.2676
lwrist -4.37482
lhand -8.83881 -21.5873
lfingers 7.12502
lthumb 17.1016 7.68005
rfemur 14.7531 3.45489 28.1215
rtibia 11.3174
rfoot 0.269792 7.07491
rtoes -17.1652
lfemur -40.9656 3.73655 -16.1065
ltibia 26.8341
lfoot -1.15265 8.04141
ltoes -8.86889
156
root 0.0208 15.8658 32.4726 8.25438 0.1524 -4.95764
lowerback -4.29771 1.93346 0.903371
upperback 0.757382 2.42245 3.48034
thorax 3.0773 1.19212 3.25048
lowerneck -23.1934 -5.03648 -12.4694
upperneck 20.773 -5.93147 12.5987
head 11.3745 -2.1486 5.78421
rclavicle -9.44227e-015 -8.74653e-015
rhumerus -24.8596 24.1745 -84.2409
rradius 47.547
rwrist -20.3076
rhand -32.3529 -25.9339
rfingers 7.12502
rthumb -5.58949 -55.8402
lclavicle -9.44227e-015 -8.74653e-015
lhumerus -54.4083 1.88825 83.2416
lradius 20.3938
lwrist -3.88145
lhand -9.17245 -21.1245
lfingers 7.12502
lthumb 16.7804 8.17032
rfemur 13.9892 3.32754 27.0435
rtibia 13.9502
rfoot 1.49291 6.76816
rtoes -14.3905
lfemur -40.9087 3.76514 -17.1954
ltibia 28.1531
lfoot -1.18769 7.47056
ltoes -9.51544
157
root 0.0208 15.8614 32.6732 8.14861 0.1524 -4.72664
lowerback -4.15639 1.87606 0.656673
upperback 0.679729 2.3669 3.45192
thorax 2.91134 1.16229 3.34758
lowerneck -23.0657 -5.1141 -12.6446
upperneck 20.7026 -5.985 12.5898
head 11.3375 -2.1922 5.79814
rclavicle -3.04141e-014 -1.98785e-015
rhumerus -25.5034 23.6687 -84.3343
rradius 47.3975
rwrist -20.411
rhand -31.9169 -24.7447
rfingers 7.12502
rthumb -5.16854 -54.6616
lclavicle -3.04141e-014 -1.98785e-015
lhumerus -54.2017 1.725 83.2906
lradius 20.3123
lwrist -4.04067
lhand -8.8671 -20.8731
lfingers 7.12502
lthumb 17.0744 8.39657
rfemur 13.2136 2.63704 26.508
rtibia 16.6014
rfoot 3.04848 6.72817
rtoes -15.0828
lfemur -40.8712 3.8823 -17.716
ltibia 29.3062
lfoot -1.24291 6.70655
ltoes -8.07785
